<svg width="107" height="42" viewBox="0 0 107 42" fill="none" xmlns="http://www.w3.org/2000/svg">
<path d="M8.982 11.768H4.266L3.51 14H0.288L4.86 1.364H8.424L12.996 14H9.738L8.982 11.768ZM8.19 9.392L6.624 4.766L5.076 9.392H8.19ZM20.5075 3.848C21.6835 3.848 22.6195 4.232 23.3155 5C24.0235 5.756 24.3775 6.8 24.3775 8.132V14H21.3175V8.546C21.3175 7.874 21.1435 7.352 20.7955 6.98C20.4475 6.608 19.9795 6.422 19.3915 6.422C18.8035 6.422 18.3355 6.608 17.9875 6.98C17.6395 7.352 17.4655 7.874 17.4655 8.546V14H14.3875V3.956H17.4655V5.288C17.7775 4.844 18.1975 4.496 18.7255 4.244C19.2535 3.98 19.8475 3.848 20.5075 3.848ZM30.3324 3.812C31.0404 3.812 31.6584 3.956 32.1864 4.244C32.7264 4.532 33.1404 4.91 33.4284 5.378V3.956H36.5064V13.982C36.5064 14.906 36.3204 15.74 35.9484 16.484C35.5884 17.24 35.0304 17.84 34.2744 18.284C33.5304 18.728 32.6004 18.95 31.4844 18.95C29.9964 18.95 28.7904 18.596 27.8664 17.888C26.9424 17.192 26.4144 16.244 26.2824 15.044H29.3244C29.4204 15.428 29.6484 15.728 30.0084 15.944C30.3684 16.172 30.8124 16.286 31.3404 16.286C31.9764 16.286 32.4804 16.1 32.8524 15.728C33.2364 15.368 33.4284 14.786 33.4284 13.982V12.56C33.1284 13.028 32.7144 13.412 32.1864 13.712C31.6584 14 31.0404 14.144 30.3324 14.144C29.5044 14.144 28.7544 13.934 28.0824 13.514C27.4104 13.082 26.8764 12.476 26.4804 11.696C26.0964 10.904 25.9044 9.992 25.9044 8.96C25.9044 7.928 26.0964 7.022 26.4804 6.242C26.8764 5.462 27.4104 4.862 28.0824 4.442C28.7544 4.022 29.5044 3.812 30.3324 3.812ZM33.4284 8.978C33.4284 8.21 33.2124 7.604 32.7804 7.16C32.3604 6.716 31.8444 6.494 31.2324 6.494C30.6204 6.494 30.0984 6.716 29.6664 7.16C29.2464 7.592 29.0364 8.192 29.0364 8.96C29.0364 9.728 29.2464 10.34 29.6664 10.796C30.0984 11.24 30.6204 11.462 31.2324 11.462C31.8444 11.462 32.3604 11.24 32.7804 10.796C33.2124 10.352 33.4284 9.746 33.4284 8.978ZM48.6512 3.956V14H45.5732V12.632C45.2612 13.076 44.8352 13.436 44.2952 13.712C43.7672 13.976 43.1792 14.108 42.5312 14.108C41.7632 14.108 41.0852 13.94 40.4972 13.604C39.9092 13.256 39.4532 12.758 39.1292 12.11C38.8052 11.462 38.6432 10.7 38.6432 9.824V3.956H41.7032V9.41C41.7032 10.082 41.8772 10.604 42.2252 10.976C42.5732 11.348 43.0412 11.534 43.6292 11.534C44.2292 11.534 44.7032 11.348 45.0512 10.976C45.3992 10.604 45.5732 10.082 45.5732 9.41V3.956H48.6512ZM53.9401 0.68V14H50.8621V0.68H53.9401ZM55.5587 8.96C55.5587 7.928 55.7507 7.022 56.1347 6.242C56.5307 5.462 57.0647 4.862 57.7367 4.442C58.4087 4.022 59.1587 3.812 59.9867 3.812C60.6947 3.812 61.3127 3.956 61.8407 4.244C62.3807 4.532 62.7947 4.91 63.0827 5.378V3.956H66.1607V14H63.0827V12.578C62.7827 13.046 62.3627 13.424 61.8227 13.712C61.2947 14 60.6767 14.144 59.9687 14.144C59.1527 14.144 58.4087 13.934 57.7367 13.514C57.0647 13.082 56.5307 12.476 56.1347 11.696C55.7507 10.904 55.5587 9.992 55.5587 8.96ZM63.0827 8.978C63.0827 8.21 62.8667 7.604 62.4347 7.16C62.0147 6.716 61.4987 6.494 60.8867 6.494C60.2747 6.494 59.7527 6.716 59.3207 7.16C58.9007 7.592 58.6907 8.192 58.6907 8.96C58.6907 9.728 58.9007 10.34 59.3207 10.796C59.7527 11.24 60.2747 11.462 60.8867 11.462C61.4987 11.462 62.0147 11.24 62.4347 10.796C62.8667 10.352 63.0827 9.746 63.0827 8.978ZM71.4655 5.63C71.8255 5.078 72.2755 4.646 72.8155 4.334C73.3555 4.01 73.9555 3.848 74.6155 3.848V7.106H73.7695C73.0015 7.106 72.4255 7.274 72.0415 7.61C71.6575 7.934 71.4655 8.51 71.4655 9.338V14H68.3875V3.956H71.4655V5.63ZM79.2712 3.722V0.86H84.2572V14H81.0532V3.722H79.2712ZM86.0387 3.722V0.86H91.0247V14H87.8207V3.722H86.0387ZM106.719 8.816C106.719 9.104 106.701 9.404 106.665 9.716H99.6988C99.7468 10.34 99.9448 10.82 100.293 11.156C100.653 11.48 101.091 11.642 101.607 11.642C102.375 11.642 102.909 11.318 103.209 10.67H106.485C106.317 11.33 106.011 11.924 105.567 12.452C105.135 12.98 104.589 13.394 103.929 13.694C103.269 13.994 102.531 14.144 101.715 14.144C100.731 14.144 99.8548 13.934 99.0868 13.514C98.3188 13.094 97.7188 12.494 97.2868 11.714C96.8548 10.934 96.6388 10.022 96.6388 8.978C96.6388 7.934 96.8488 7.022 97.2688 6.242C97.7008 5.462 98.3008 4.862 99.0688 4.442C99.8368 4.022 100.719 3.812 101.715 3.812C102.687 3.812 103.551 4.016 104.307 4.424C105.063 4.832 105.651 5.414 106.071 6.17C106.503 6.926 106.719 7.808 106.719 8.816ZM103.569 8.006C103.569 7.478 103.389 7.058 103.029 6.746C102.669 6.434 102.219 6.278 101.679 6.278C101.163 6.278 100.725 6.428 100.365 6.728C100.017 7.028 99.8008 7.454 99.7168 8.006H103.569ZM9.342 28.364V30.83H4.194V33.494H8.046V35.888H4.194V41H1.116V28.364H9.342ZM12.5078 29.912C11.9678 29.912 11.5238 29.756 11.1758 29.444C10.8398 29.12 10.6718 28.724 10.6718 28.256C10.6718 27.776 10.8398 27.38 11.1758 27.068C11.5238 26.744 11.9678 26.582 12.5078 26.582C13.0358 26.582 13.4678 26.744 13.8038 27.068C14.1518 27.38 14.3258 27.776 14.3258 28.256C14.3258 28.724 14.1518 29.12 13.8038 29.444C13.4678 29.756 13.0358 29.912 12.5078 29.912ZM14.0378 30.956V41H10.9598V30.956H14.0378ZM19.3463 32.63C19.7063 32.078 20.1563 31.646 20.6963 31.334C21.2363 31.01 21.8363 30.848 22.4963 30.848V34.106H21.6503C20.8823 34.106 20.3063 34.274 19.9223 34.61C19.5383 34.934 19.3463 35.51 19.3463 36.338V41H16.2683V30.956H19.3463V32.63ZM33.4356 35.816C33.4356 36.104 33.4176 36.404 33.3816 36.716H26.4156C26.4636 37.34 26.6616 37.82 27.0096 38.156C27.3696 38.48 27.8076 38.642 28.3236 38.642C29.0916 38.642 29.6256 38.318 29.9256 37.67H33.2016C33.0336 38.33 32.7276 38.924 32.2836 39.452C31.8516 39.98 31.3056 40.394 30.6456 40.694C29.9856 40.994 29.2476 41.144 28.4316 41.144C27.4476 41.144 26.5716 40.934 25.8036 40.514C25.0356 40.094 24.4356 39.494 24.0036 38.714C23.5716 37.934 23.3556 37.022 23.3556 35.978C23.3556 34.934 23.5656 34.022 23.9856 33.242C24.4176 32.462 25.0176 31.862 25.7856 31.442C26.5536 31.022 27.4356 30.812 28.4316 30.812C29.4036 30.812 30.2676 31.016 31.0236 31.424C31.7796 31.832 32.3676 32.414 32.7876 33.17C33.2196 33.926 33.4356 34.808 33.4356 35.816ZM30.2856 35.006C30.2856 34.478 30.1056 34.058 29.7456 33.746C29.3856 33.434 28.9356 33.278 28.3956 33.278C27.8796 33.278 27.4416 33.428 27.0816 33.728C26.7336 34.028 26.5176 34.454 26.4336 35.006H30.2856ZM38.1374 32.378C38.4254 31.91 38.8394 31.532 39.3794 31.244C39.9194 30.956 40.5374 30.812 41.2334 30.812C42.0614 30.812 42.8114 31.022 43.4834 31.442C44.1554 31.862 44.6834 32.462 45.0674 33.242C45.4634 34.022 45.6614 34.928 45.6614 35.96C45.6614 36.992 45.4634 37.904 45.0674 38.696C44.6834 39.476 44.1554 40.082 43.4834 40.514C42.8114 40.934 42.0614 41.144 41.2334 41.144C40.5254 41.144 39.9074 41.006 39.3794 40.73C38.8514 40.442 38.4374 40.064 38.1374 39.596V41H35.0594V27.68H38.1374V32.378ZM42.5294 35.96C42.5294 35.192 42.3134 34.592 41.8814 34.16C41.4614 33.716 40.9394 33.494 40.3154 33.494C39.7034 33.494 39.1814 33.716 38.7494 34.16C38.3294 34.604 38.1194 35.21 38.1194 35.978C38.1194 36.746 38.3294 37.352 38.7494 37.796C39.1814 38.24 39.7034 38.462 40.3154 38.462C40.9274 38.462 41.4494 38.24 41.8814 37.796C42.3134 37.34 42.5294 36.728 42.5294 35.96ZM46.6642 35.96C46.6642 34.928 46.8562 34.022 47.2402 33.242C47.6362 32.462 48.1702 31.862 48.8422 31.442C49.5142 31.022 50.2642 30.812 51.0922 30.812C51.8002 30.812 52.4182 30.956 52.9462 31.244C53.4862 31.532 53.9002 31.91 54.1882 32.378V30.956H57.2662V41H54.1882V39.578C53.8882 40.046 53.4682 40.424 52.9282 40.712C52.4002 41 51.7822 41.144 51.0742 41.144C50.2582 41.144 49.5142 40.934 48.8422 40.514C48.1702 40.082 47.6362 39.476 47.2402 38.696C46.8562 37.904 46.6642 36.992 46.6642 35.96ZM54.1882 35.978C54.1882 35.21 53.9722 34.604 53.5402 34.16C53.1202 33.716 52.6042 33.494 51.9922 33.494C51.3802 33.494 50.8582 33.716 50.4262 34.16C50.0062 34.592 49.7962 35.192 49.7962 35.96C49.7962 36.728 50.0062 37.34 50.4262 37.796C50.8582 38.24 51.3802 38.462 51.9922 38.462C52.6042 38.462 53.1202 38.24 53.5402 37.796C53.9722 37.352 54.1882 36.746 54.1882 35.978ZM63.579 41.144C62.703 41.144 61.923 40.994 61.239 40.694C60.555 40.394 60.015 39.986 59.619 39.47C59.223 38.942 59.001 38.354 58.953 37.706H61.995C62.031 38.054 62.193 38.336 62.481 38.552C62.769 38.768 63.123 38.876 63.543 38.876C63.927 38.876 64.221 38.804 64.425 38.66C64.641 38.504 64.749 38.306 64.749 38.066C64.749 37.778 64.599 37.568 64.299 37.436C63.999 37.292 63.513 37.136 62.841 36.968C62.121 36.8 61.521 36.626 61.041 36.446C60.561 36.254 60.147 35.96 59.799 35.564C59.451 35.156 59.277 34.61 59.277 33.926C59.277 33.35 59.433 32.828 59.745 32.36C60.069 31.88 60.537 31.502 61.149 31.226C61.773 30.95 62.511 30.812 63.363 30.812C64.623 30.812 65.613 31.124 66.333 31.748C67.065 32.372 67.485 33.2 67.593 34.232H64.749C64.701 33.884 64.545 33.608 64.281 33.404C64.029 33.2 63.693 33.098 63.273 33.098C62.913 33.098 62.637 33.17 62.445 33.314C62.253 33.446 62.157 33.632 62.157 33.872C62.157 34.16 62.307 34.376 62.607 34.52C62.919 34.664 63.399 34.808 64.047 34.952C64.791 35.144 65.397 35.336 65.865 35.528C66.333 35.708 66.741 36.008 67.089 36.428C67.449 36.836 67.635 37.388 67.647 38.084C67.647 38.672 67.479 39.2 67.143 39.668C66.819 40.124 66.345 40.484 65.721 40.748C65.109 41.012 64.395 41.144 63.579 41.144ZM78.9981 35.816C78.9981 36.104 78.9801 36.404 78.9441 36.716H71.9781C72.0261 37.34 72.2241 37.82 72.5721 38.156C72.9321 38.48 73.3701 38.642 73.8861 38.642C74.6541 38.642 75.1881 38.318 75.4881 37.67H78.7641C78.5961 38.33 78.2901 38.924 77.8461 39.452C77.4141 39.98 76.8681 40.394 76.2081 40.694C75.5481 40.994 74.8101 41.144 73.9941 41.144C73.0101 41.144 72.1341 40.934 71.3661 40.514C70.5981 40.094 69.9981 39.494 69.5661 38.714C69.1341 37.934 68.9181 37.022 68.9181 35.978C68.9181 34.934 69.1281 34.022 69.5481 33.242C69.9801 32.462 70.5801 31.862 71.3481 31.442C72.1161 31.022 72.9981 30.812 73.9941 30.812C74.9661 30.812 75.8301 31.016 76.5861 31.424C77.3421 31.832 77.9301 32.414 78.3501 33.17C78.7821 33.926 78.9981 34.808 78.9981 35.816ZM75.8481 35.006C75.8481 34.478 75.6681 34.058 75.3081 33.746C74.9481 33.434 74.4981 33.278 73.9581 33.278C73.4421 33.278 73.0041 33.428 72.6441 33.728C72.2961 34.028 72.0801 34.454 71.9961 35.006H75.8481Z" fill="#002F52"/>
</svg>
